[img]http://imageshack.us/a/img4/4361/attachmentyi.jpg[/img]

[b][size=200]PLOT[/size][/b]

[b][color=black]Five friends go for a break at a remote cabin in the woods, where they get more than they bargained for. Together, they must discover the truth behind the cabin in the woods.[/color][/b]

[url="http://www.imdb.com/title/tt1259521/"][size=200]IMDB[/size][/url]

[b][color=black]The Cabin In The Woods 2011 DvdRip x264 AAC -Sebastian[Ub3r]

Format                           : MPEG-4
Format profile                   : Base Media / Version 2
Codec ID                         : mp42
File size                        : 334 MiB
Duration                         : 1h 31mn
Overall bit rate                 : 513 Kbps
Encoded date                     : UTC 2012-10-11 13:56:54
Tagged date                      : UTC 2012-10-11 14:16:24

Video
ID                               : 1
Format                           : AVC
Format/Info                      : Advanced Video Codec
Format profile                   : Main@L2.1
Format settings, CABAC           : Yes
Format settings, ReFrames        : 4 frames
Codec ID                         : avc1
Codec ID/Info                    : Advanced Video Coding
Duration                         : 1h 31mn
Bit rate mode                    : Variable
Bit rate                         : 400 Kbps
Width                            : 640 pixels
Height                           : 272 pixels
Display aspect ratio             : 2.35:1
Frame rate mode                  : Constant
Frame rate                       : 25.000 fps
Color space                      : YUV
Chroma subsampling               : 4:2:0
Bit depth                        : 8 bits
Scan type                        : Progressive
Bits/(Pixel*Frame)               : 0.092
Stream size                      : 258 MiB (77%)
Writing library                  : x264 core 120
Encoded date                     : UTC 2012-10-11 13:56:54
Tagged date                      : UTC 2012-10-11 14:16:20

Audio
ID                               : 2
Format                           : AAC
Format/Info                      : Advanced Audio Codec
Format profile                   : LC
Codec ID                         : 40
Duration                         : 1h 31mn
Bit rate mode                    : Variable
Bit rate                         : 112 Kbps
Maximum bit rate                 : 143 Kbps
Channel(s)                       : 2 channels
Channel positions                : Front: L R
Sampling rate                    : 48.0 KHz
Compression mode                 : Lossy
Stream size                      : 73.0 MiB (22%)
Encoded date                     : UTC 2012-10-11 13:56:54
Tagged date                      : UTC 2012-10-11 14:16:19[/color][/b]

[b][size=200]SCREENSHOTS[/size][/b]

[img]http://imageshack.us/a/img829/2004/thecabininthewoods2011d.jpg[/img]

[img]http://kastatic.com/i2/users/133df62bbf28e62494bb17fe11078f1a.gif[/img][img]http://kastatic.com/i2/users/133df62bbf28e62494bb17fe11078f1a.gif[/img]